<svg width="140" height="107" viewBox="0 0 140 107" fill="none" xmlns="http://www.w3.org/2000/svg">
<path d="M139.971 7.27119C139.952 7.10978 139.925 6.94944 139.903 6.7902C139.893 6.70136 139.888 6.61362 139.881 6.52262C139.875 6.4327 139.87 6.34604 139.85 6.25829C139.817 6.09471 139.774 5.93545 139.722 5.77729C139.674 5.61913 139.619 5.46314 139.563 5.30498C139.535 5.22156 139.515 5.13706 139.49 5.05365C139.469 4.96807 139.445 4.88465 139.411 4.7969C139.344 4.63874 139.265 4.48815 139.184 4.33759C139.103 4.18701 139.015 4.04077 138.926 3.89234C138.887 3.81976 138.85 3.74501 138.814 3.67134C138.778 3.5966 138.738 3.5251 138.689 3.4536C138.549 3.2391 138.396 3.0322 138.236 2.83502C138.072 2.63569 137.901 2.44504 137.719 2.26519V2.26194C137.719 2.26194 137.719 2.26086 137.716 2.26194C137.694 2.23811 137.67 2.22186 137.645 2.20453C137.62 2.18611 137.597 2.16986 137.574 2.14711C137.413 1.99545 137.246 1.84704 137.073 1.70622C136.903 1.56322 136.722 1.42997 136.537 1.30756C136.407 1.21873 136.272 1.14289 136.135 1.07031C135.995 0.997729 135.858 0.929482 135.718 0.857984C135.632 0.815736 135.552 0.765901 135.466 0.721484C135.383 0.674901 135.3 0.629404 135.208 0.595822C135.013 0.514573 134.815 0.445242 134.618 0.384576C134.417 0.323911 134.216 0.270827 134.012 0.223162C133.969 0.213413 133.929 0.199329 133.887 0.187411C133.848 0.173328 133.807 0.159247 133.765 0.15058C133.497 0.0974971 133.223 0.0574145 132.95 0.0324994C132.677 0.0075834 132.402 -0.00216697 132.127 0.00108331L120.49 0H108.854C106.706 0 104.76 0.867731 103.352 2.2717C101.945 3.67568 101.071 5.616 101.071 7.75975C101.071 9.9058 101.941 11.847 103.349 13.2533C104.76 14.6584 106.706 15.5283 108.857 15.5272H113.404L96.5127 32.3782L78.5697 50.2734L67.7239 39.4565C66.2021 37.9387 64.2111 37.1815 62.2179 37.1815C60.2247 37.1815 58.2326 37.9398 56.7119 39.4565L2.27994 93.7434C0.760352 95.2612 0 97.2469 0 99.2337C0 101.221 0.760352 103.208 2.27994 104.724C3.04029 105.482 3.91793 106.05 4.85533 106.431C5.79272 106.81 6.78985 107 7.78478 107C8.77971 107 9.77798 106.81 10.7142 106.431C11.6516 106.052 12.5304 105.484 13.2896 104.724L39.6639 78.4188L62.2147 55.9292L67.637 61.3371L73.0571 66.745C74.58 68.2627 76.5722 69.0199 78.5632 69.0199C80.5553 69.0199 82.5484 68.2616 84.0681 66.745L124.402 26.5241V31.059C124.402 33.2018 125.272 35.1432 126.683 36.5492C128.091 37.9532 130.037 38.8231 132.188 38.8209C134.339 38.8209 136.288 37.951 137.696 36.5471C139.104 35.1431 139.977 33.2019 139.974 31.059V8.02027C139.974 7.97694 139.984 7.93361 139.989 7.89136C139.996 7.84911 140.001 7.80794 139.999 7.7657C140.004 7.59887 139.989 7.43529 139.971 7.27172L139.971 7.27119Z" fill="#F6CDAA"/>
</svg>
