<svg width="57" height="92" viewBox="0 0 87 112" fill="none">
<path d="M80.3115 33.6827C78.6327 32.4554 77.2151 30.9072 76.1419 29.1287C75.6095 27.0261 75.4941 24.8404 75.8016 22.6931C76.0282 18.9296 76.2733 14.9965 73.7446 12.4755C71.2166 9.95442 67.2921 10.1989 63.4998 10.4249C61.34 10.7357 59.1397 10.6139 57.0271 10.067C55.2523 8.99346 53.7015 7.58813 52.4615 5.92728C50.0271 3.14256 47.2911 0 43.5173 0C39.7436 0 37.0075 3.14256 34.5731 5.92728C33.3332 7.58807 31.7825 8.9935 30.0075 10.067C27.8949 10.6139 25.6947 10.7357 23.5348 10.4249C19.7611 10.1989 15.8172 9.95449 13.2892 12.4763C10.7604 14.9982 11.0064 18.912 11.2322 22.6939L11.233 22.6931C11.5405 24.8402 11.4251 27.0259 10.8927 29.1287C9.81958 30.9071 8.40186 32.4554 6.72308 33.6827C3.89278 36.1289 0.77955 38.8758 0.77955 42.6207C0.77955 46.3656 3.89299 49.0942 6.72308 51.5405C8.4019 52.7669 9.81949 54.3151 10.8927 56.0935C11.4251 58.1962 11.5405 60.3828 11.233 62.5292C11.0064 66.2926 10.7613 70.2257 13.2901 72.7468H13.2892C13.8789 73.3289 14.578 73.7901 15.3463 74.1018C17.9922 74.9595 20.8005 75.1981 23.554 74.7982C25.7071 74.4874 27.9014 74.6092 30.0074 75.1561C31.7906 76.2263 33.3431 77.6401 34.5729 79.3143C36.0386 81.196 37.7823 82.8459 39.7434 84.2068C40.8738 84.9149 42.1821 85.2904 43.5171 85.2904C44.8522 85.2904 46.1605 84.9149 47.2909 84.2068C49.2544 82.8644 51.004 81.2339 52.4797 79.3707C53.712 77.6914 55.2711 76.2767 57.0646 75.2124C59.1537 74.6479 61.3354 74.5068 63.48 74.7983C66.2193 75.1964 69.0142 74.9646 71.65 74.1212C72.4191 73.8003 73.1174 73.3341 73.7071 72.7469C76.2359 70.225 75.9899 66.3112 75.7641 62.5293C75.4558 60.383 75.5712 58.1964 76.1036 56.0936C77.1767 54.3153 78.5945 52.767 80.2732 51.5405C83.047 49.0943 86.2168 46.3474 86.2168 42.6208C86.2168 38.8952 83.1413 36.1288 80.311 33.6828L80.3115 33.6827ZM65.8586 42.6207C65.8586 48.5297 63.5042 54.1966 59.3151 58.375C55.1252 62.5527 49.4428 64.9006 43.5176 64.9006C37.5924 64.9006 31.91 62.5527 27.7201 58.375C23.531 54.1966 21.1766 48.5297 21.1766 42.6207C21.1766 36.7117 23.531 31.0449 27.7201 26.8664C31.91 22.6888 37.5924 20.3408 43.5176 20.3408C49.4411 20.3459 55.1211 22.6946 59.3091 26.8722C63.4981 31.0489 65.8534 36.7134 65.8583 42.6205L65.8586 42.6207Z" fill="#F6CDAA"/>
<path d="M61.0288 38.0117C60.8123 37.3405 60.2362 36.8465 59.5387 36.7323L50.3116 35.2832L46.0097 27.0037C45.6871 26.3753 45.0385 25.9797 44.3301 25.9797C43.6225 25.9797 42.9739 26.3753 42.6512 27.0037L38.3485 35.2832L29.1214 36.8071H29.1223C28.4256 36.9205 27.8503 37.4127 27.6321 38.0823C27.4131 38.7518 27.5883 39.4868 28.0845 39.9875L34.632 46.5735L33.2354 55.7939C33.1629 56.4768 33.4704 57.1447 34.0356 57.5361C34.6008 57.9284 35.3362 57.9814 35.9528 57.6756L44.3309 53.498L52.7091 57.6756H52.7082C53.3248 57.9814 54.0594 57.9284 54.6246 57.5361C55.1906 57.1447 55.4973 56.4768 55.4248 55.7939L54.0097 46.5735L60.5009 39.9118C61.0223 39.4288 61.227 38.6937 61.0291 38.0116L61.0288 38.0117Z" fill="#F6CDAA"/>
<path d="M38.8198 85.7684C36.7333 84.3815 34.8751 82.6805 33.3108 80.7257L33.16 80.556H33.1592C32.0919 79.1195 30.7837 77.8779 29.291 76.8868C28.4023 76.6053 27.4681 76.4902 26.5366 76.5482C25.5932 76.5482 24.6497 76.5482 23.5935 76.6801C22.5372 76.812 21.2728 76.812 20.1971 76.812C18.2606 76.8809 16.3315 76.5415 14.5365 75.8149C13.8542 75.5024 13.2191 75.0966 12.6497 74.6102L0.252814 95.9675C-0.083286 96.548 -0.084127 97.2629 0.249445 97.8442C0.583863 98.4255 1.203 98.7859 1.8752 98.7901H16.0082L23.1218 110.965C23.4562 111.544 24.0745 111.902 24.7441 111.906C25.4138 111.902 26.0321 111.544 26.3665 110.965L40.5366 86.5026H40.5374C39.9436 86.3103 39.369 86.065 38.8198 85.7684Z" fill="#F6CDAA"/>
<path d="M74.4073 74.6287C73.7898 75.1361 73.1033 75.5545 72.3696 75.8711C70.572 76.5885 68.6422 76.9153 66.709 76.8305C65.6148 76.8305 64.5013 76.8305 63.3885 76.6986C62.2749 76.5667 61.2751 76.5667 60.3316 76.5667L60.3308 76.5675C59.437 76.5197 58.5424 76.6347 57.6891 76.9061C56.2285 77.8788 54.9507 79.102 53.9154 80.5192L53.7082 80.7451V80.7443C52.1498 82.6974 50.2976 84.3985 48.2177 85.7879C47.6592 86.1114 47.0713 86.3818 46.4623 86.5969L60.6323 111.059H60.6332C60.9684 111.638 61.5859 111.996 62.2555 112C62.9261 111.996 63.5435 111.638 63.8787 111.059L70.9923 98.8844H85.1253H85.1245C85.7967 98.8802 86.4158 98.5198 86.7502 97.9385C87.0846 97.3572 87.083 96.6423 86.7469 96.0618L74.4073 74.6287Z" fill="#F6CDAA"/>
</svg>
