<svg xmlns="http://www.w3.org/2000/svg" width="350" height="350" viewBox="0 0 350 350">
    <g fill="none" fill-rule="evenodd" opacity=".03">
        <g fill-rule="nonzero">
            <g>
                <path fill="#61CE5B" d="M192 6.22l10 15.39L192 37c-6.527-.983-13.207-1.492-20-1.492V5c6.767 0 13.447.414 20 1.22z" transform="translate(-210 -144) rotate(179 277.859 246.43)"/>
                <path fill="#94E368" d="M192.207 6C274.908 15.96 339 86.432 339 171.895 339 264.183 264.253 339 172.052 339c-46.1 0-87.833-18.708-118.052-48.941V268.66h21.377c24.744 24.76 58.92 40.078 96.675 40.078 75.506 0 136.716-61.267 136.716-136.844 0-68.725-50.608-125.615-116.56-135.366V6z" transform="translate(-210 -144) rotate(179 277.859 246.43)"/>
                <path fill="#9255E3" d="M192 56.762l10 15.619L192 88c-6.42-1.564-13.113-2.394-20-2.394V55c6.82 0 13.507.605 20 1.762z" transform="translate(-210 -144) rotate(179 277.859 246.43)"/>
                <path fill="#AE7DF0" d="M192 57c54.536 9.535 96 57.25 96 114.681 0 32.148-12.992 61.25-33.998 82.319h-21.287v-21.351c15.56-15.601 25.18-37.16 25.18-60.968 0-40.69-28.097-74.797-65.895-83.862V57z" transform="translate(-210 -144) rotate(179 277.859 246.43)"/>
                <path fill="#3B88F5" d="M192 108.181l10 16.91L192 142c-5.7-3.966-12.587-6.28-20-6.28V105c6.973 0 13.693 1.113 20 3.181z" transform="translate(-210 -144) rotate(179 277.859 246.43)"/>
                <path fill="#28ABFA" d="M192.156 109c26.59 8.504 45.844 33.467 45.844 62.937C238 208.423 208.486 238 172.078 238L152 221.71l20.078-13.89c19.776 0 35.805-16.064 35.805-35.883 0-12.36-6.237-23.26-15.727-29.711V109z" transform="translate(-210 -144) rotate(179 277.859 246.43)"/>
                <g fill="#8AE7FF">
                    <path d="M35.114 67.357L13.668 88.81c-4.771-4.78-9.26-9.844-13.432-15.17V53.413l21.635-1.415c4.037 5.44 8.465 10.578 13.243 15.359zM193.338 31.595l21.446 21.454c-4.785 4.788-9.988 9.163-15.542 13.06h-21.884V44.217c5.817-3.574 11.181-7.815 15.98-12.622zM132.1 6.405v30.341c-7.05 0-13.843-1.099-20.22-3.142L91.662.202h20.22c5.762 3.918 12.725 6.203 20.22 6.203z" transform="translate(-210 -144) rotate(179 277.859 246.43) translate(40 201)"/>
                </g>
                <path fill="#C4F3FF" d="M152 201.741V235c-26.68-8.513-46-33.5-46-63h30.219c0 12.373 6.259 23.283 15.781 29.741zM62 253.421L40.461 275C18.245 246.618 5 210.862 5 172h30.194c0 30.506 9.964 58.673 26.806 81.421z" transform="translate(-210 -144) rotate(179 277.859 246.43)"/>
                <path fill="#C4F3FF" d="M217.244 245.264L239 266.973C220.112 280.224 197.09 288 172.251 288 108.048 288 56 236.064 56 172h30.152c0 47.45 38.547 85.914 86.1 85.914 16.489 0 31.9-4.627 44.992-12.65z" transform="translate(-210 -144) rotate(179 277.859 246.43)"/>
                <path fill="#000" d="M293.623 50.377C261.136 17.891 217.943 0 172 0c-2.783 0-5.04 2.255-5.04 5.04v30.233c0 2.784 2.257 5.04 5.04 5.04 72.613 0 131.688 59.074 131.688 131.687 0 72.613-59.075 131.688-131.688 131.688-72.613 0-131.688-59.075-131.688-131.688 0-2.784-2.256-5.04-5.039-5.04H5.04C2.256 166.96 0 169.217 0 172c0 45.943 17.891 89.136 50.377 121.623C82.864 326.109 126.057 344 172 344s89.136-17.891 121.623-50.377C326.109 261.136 344 217.943 344 172s-17.891-89.136-50.377-121.623zM10.155 177.04h20.167c1.241 35.291 15.449 67.339 37.988 91.525l-14.26 14.26c-26.181-27.848-42.64-64.935-43.895-105.785zM172 333.922c-42.834 0-81.83-16.724-110.82-43.976l14.255-14.255c25.333 23.608 59.29 38.075 96.565 38.075 78.17 0 141.766-63.596 141.766-141.766 0-76.48-60.884-139.01-136.727-141.677V10.155C264.004 12.825 333.922 84.4 333.922 172c0 89.284-72.638 161.922-161.922 161.922z" transform="translate(-210 -144) rotate(179 277.859 246.43)"/>
                <path fill="#000" d="M172.5 244c39.425 0 71.5-32.075 71.5-71.5S211.925 101 172.5 101c-2.794 0-5.059 2.264-5.059 5.059v30.354c0 2.794 2.265 5.059 5.059 5.059 17.109 0 31.028 13.92 31.028 31.028 0 17.109-13.92 31.028-31.028 31.028-17.109 0-31.028-13.92-31.028-31.028 0-2.795-2.265-5.059-5.06-5.059H106.06c-2.794 0-5.059 2.264-5.059 5.059 0 39.425 32.074 71.5 71.5 71.5zm41.146-71.5c0-20.975-15.778-38.335-36.087-40.837v-20.339c31.49 2.58 56.323 29.032 56.323 61.176 0 32.143-24.835 58.59-56.323 61.172v-20.348c20.309-2.503 36.087-19.85 36.087-40.824zm-81.983 5.059c2.297 18.65 17.127 33.469 35.778 35.767v20.334c-29.819-2.446-53.674-26.28-56.117-56.101h20.339z" transform="translate(-210 -144) rotate(179 277.859 246.43)"/>
                <path fill="#000" d="M172.5 294c66.996 0 121.5-54.504 121.5-121.5C294 105.504 239.496 51 172.5 51c-2.78 0-5.035 2.253-5.035 5.035v30.207c0 2.78 2.255 5.034 5.035 5.034 44.787 0 81.224 36.437 81.224 81.224 0 44.787-36.437 81.224-81.224 81.224-18.471 0-35.877-6.043-50.335-17.475-2.18-1.724-5.347-1.355-7.071.825-1.725 2.181-1.355 5.348.826 7.072 16.254 12.854 35.819 19.647 56.58 19.647 23.362 0 44.699-8.825 60.862-23.31l14.253 14.252c-19.826 18.124-46.2 29.196-75.115 29.196-59.756 0-108.676-47.282-111.319-106.396h20.16c1.01 18.883 7.705 36.612 19.513 51.546 1.724 2.18 4.891 2.55 7.072.825 2.18-1.724 2.55-4.89.826-7.071C97.32 208.377 91.276 190.97 91.276 172.5c0-2.781-2.254-5.035-5.034-5.035H56.035c-2.78 0-5.035 2.254-5.035 5.035C51 239.496 105.504 294 172.5 294zm5.035-212.656V61.181C236.649 63.824 283.93 112.744 283.93 172.5c0 28.914-11.072 55.29-29.196 75.114l-14.253-14.253c14.486-16.162 23.31-37.5 23.31-60.861 0-48.65-38.252-88.533-86.257-91.156z" transform="translate(-210 -144) rotate(179 277.859 246.43)"/>
            </g>
        </g>
    </g>
</svg>
