<svg xmlns="http://www.w3.org/2000/svg" width="20" height="20" viewBox="0 0 20 20">
    <g fill="none" fill-rule="evenodd">
        <g fill-rule="nonzero">
            <g transform="translate(-1207 -416) translate(1207 416)">
                <circle cx="10" cy="10" r="10" fill="#6AAF50"/>
                <path fill="#4D8538" d="M5.304 4.143c-1.137.598-1.615 1.98-1.094 3.162.75 1.7 1.758 3.256 2.973 4.618l.919.926L14.206 19c1.528-.748 2.834-1.883 3.794-3.279l-2.252-2.27c-.087-.128-.199-.243-.333-.335L6.918 4.554c-.357-.53-1.05-.707-1.614-.411z"/>
                <path fill="#FFF" d="M13.54 11.779c-.314-.214-.729-.213-1.043.002l-.452.31c-.504.346-1.174.328-1.658-.045-.457-.351-.892-.728-1.306-1.127-.4-.414-.776-.85-1.127-1.306-.373-.484-.391-1.154-.046-1.658l.31-.452c.216-.314.217-.729.003-1.044L6.927 4.551c-.358-.527-1.054-.704-1.619-.409-1.141.595-1.62 1.972-1.097 3.147.752 1.693 1.763 3.241 2.982 4.597l.921.921c1.356 1.22 2.904 2.23 4.597 2.982 1.175.523 2.552.044 3.147-1.097.295-.565.118-1.261-.41-1.619l-1.907-1.294z"/>
            </g>
        </g>
    </g>
</svg>
