<svg xmlns="http://www.w3.org/2000/svg" width="31" height="31" viewBox="0 0 31 31">
    <g fill="none" fill-rule="evenodd">
        <g fill="#000" fill-rule="nonzero">
            <g>
                <path d="M25.3 9.458c.01-.177.015-.358.015-.544.006-3.92-2.521-7.383-6.223-8.525-4.64-1.433-9.547 1.217-10.961 5.918-.13-.006-.257-.01-.381-.01C3.47 6.297 0 9.812 0 14.148 0 18.485 3.47 22 7.75 22h4.655c.285 0 .517-.234.517-.523 0-.29-.232-.524-.517-.524H7.75c-3.71 0-6.717-3.046-6.717-6.805 0-3.758 3.007-6.804 6.717-6.804.238 0 .476.014.713.04.253.02.486-.145.552-.394.866-3.499 3.973-5.95 7.533-5.943 4.28.009 7.743 3.53 7.734 7.867.001.327-.02.653-.062.976-.004.024-.005.047-.005.071 0 .29.231.523.517.523h.067c2.853 0 5.166 2.344 5.166 5.235 0 2.89-2.313 5.234-5.166 5.234h-6.165c-.286 0-.517.234-.517.524 0 .289.231.523.517.523h6.165c3.23 0 5.92-2.513 6.18-5.775.276-3.458-2.267-6.488-5.68-6.767z" transform="translate(-518 -215) translate(518 215)"/>
                <path d="M21 16.095L15 10 9 16.095 9.706 16.813 14.501 11.941 14.501 31 15.499 31 15.499 11.941 20.294 16.813z" transform="translate(-518 -215) translate(518 215)"/>
            </g>
        </g>
    </g>
</svg>
